<svg width="100" height="100" viewBox="0 0 100 100" fill="none" xmlns="http://www.w3.org/2000/svg">
<g clip-path="url(#clip0_4438_8760)">
<path fill-rule="evenodd" clip-rule="evenodd" d="M30.0228 51.8543C29.5135 40.0299 37.5755 30.653 49.7887 30.0282C65.7196 29.2143 76.0885 46.1685 68.4187 59.7468C64.3379 66.9744 55.1576 71.4737 46.7793 69.5078C44.9199 69.0709 43.4295 68.1031 41.871 67.0912L41.7617 67.0202C41.3753 67.5246 40.8718 67.9316 40.3449 68.2812C38.7992 69.3301 35.9713 70.4764 34.127 69.7944C32.9459 69.3562 32.9282 68.2881 32.9108 67.2323C32.9061 66.9483 32.9014 66.6652 32.8741 66.3955C32.6454 64.1639 32.0819 62.027 31.5142 59.874C30.8323 57.2879 30.1442 54.6786 30.0228 51.8543ZM44.3497 58.9469C43.9228 59.3188 43.4883 59.6972 43.0147 59.9531C41.9549 60.5091 41.6271 59.9302 41.2289 59.0131C39.976 56.0957 39.8238 51.1264 40.5556 48.0714C41.5392 43.916 44.8238 40.2592 49.3379 39.8695C53.9046 39.474 58.1435 41.7437 60.058 45.8418C64.2969 54.9609 53.4479 63.9653 45.0463 58.3712V58.3655C44.8129 58.5434 44.5824 58.7442 44.3497 58.9469Z" fill="white"/>
<path fill-rule="evenodd" clip-rule="evenodd" d="M49.7887 30.0282C37.5755 30.653 29.5135 40.0299 30.0228 51.8543C30.1442 54.6786 30.8323 57.2879 31.5142 59.874C32.0819 62.027 32.6454 64.1639 32.8741 66.3955C32.9014 66.6652 32.9061 66.9483 32.9108 67.2323C32.9282 68.2881 32.9459 69.3562 34.127 69.7944C35.9713 70.4764 38.7992 69.3301 40.3449 68.2812C40.8718 67.9316 41.3753 67.5246 41.7617 67.0202L41.871 67.0912C43.4295 68.1031 44.9199 69.0709 46.7793 69.5078C55.1576 71.4737 64.3379 66.9744 68.4187 59.7468C76.0885 46.1685 65.7196 29.2143 49.7887 30.0282ZM41.2289 59.0131C41.6271 59.9302 41.9549 60.5091 43.0147 59.9531C43.4883 59.6972 43.9228 59.3188 44.3497 58.9469C44.5824 58.7442 44.8129 58.5434 45.0463 58.3655V58.3712C53.4479 63.9653 64.2969 54.9609 60.058 45.8418C58.1435 41.7437 53.9046 39.474 49.3379 39.8695C44.8238 40.2592 41.5392 43.916 40.5556 48.0714C39.8238 51.1264 39.976 56.0957 41.2289 59.0131Z" fill="white"/>
<path fill-rule="evenodd" clip-rule="evenodd" d="M50 0C77.6142 0 100 22.3858 100 50C100 77.6142 77.6142 100 50 100C22.3858 100 0 77.6142 0 50C0 22.3858 22.3858 0 50 0ZM50 1C22.938 1 1 22.938 1 50C1 77.062 22.938 99 50 99C77.062 99 99 77.062 99 50C99 22.938 77.062 1 50 1Z" fill="transparent"/>
</g>
<defs>
<clipPath id="clip0_4438_8760">
<rect width="100" height="100" rx="50" fill="transparent"/>
</clipPath>
</defs>
</svg>
