<svg width="687" height="217" viewBox="0 0 687 217" fill="none" xmlns="http://www.w3.org/2000/svg">
 <defs>
    <linearGradient id="goldGradient" x1="0%" y1="0%" x2="100%" y2="0%">
      <stop offset="0%" stop-color="#f7e579" />
      <stop offset="100%" stop-color="#df9339" />
    </linearGradient>
  </defs>

<path d="M50.6093 104.612L69.103 86.5862H63.8402L45.3466 104.612H50.6093Z" fill="url(#goldGradient)"/>
<path d="M62.5702 104.612L81.0639 86.5862H75.8011L57.3074 104.612H62.5702Z" fill="url(#goldGradient)"/>
<path fill-rule="evenodd" clip-rule="evenodd" d="M93.5031 86.5862H88.2404L69.7467 104.612H75.0095L93.5031 86.5862Z" fill="url(#goldGradient)"/>
<path d="M282.786 86.5862H236.068H99.8473L81.3537 104.612H236.068H282.786L282.787 108.962C282.787 109.351 283.215 109.592 283.55 109.391L305.936 96.044C306.262 95.8497 306.262 95.3801 305.936 95.1858L283.55 81.8384C283.215 81.6383 282.787 81.8786 282.787 82.2676L282.786 86.5862Z" fill="url(#goldGradient)"/>
<path d="M200.942 74.6926H186.143V86.552H200.942V74.6926Z" fill="white"/>
<path fill-rule="evenodd" clip-rule="evenodd" d="M186.143 112.982H200.942V104.578H186.143V112.982Z" fill="white"/>
<path d="M186.143 134.938H137.929V74.6926H153.205V121.387H186.143H200.941V134.938V140.631V149.644L191.871 140.631L186.143 134.938Z" fill="white"/>
<path d="M111.411 74.7419L50.7853 134.987H68.448L87.0653 116.487H116.185V121.436V134.987H131.461V113.166V104.628H116.185H98.5222L116.662 86.6013H131.461V74.7419H111.411Z" fill="white"/>
<path d="M224.548 134.987H208.794V104.628H247.939C252.948 104.628 257.009 100.592 257.009 95.6144C257.009 90.6366 252.948 86.6013 247.939 86.6013H208.794V74.7419H251.519C263.251 74.7419 272.762 84.1931 272.762 95.8516C272.762 107.51 263.251 116.961 251.519 116.961H224.548V134.987Z" fill="white"/>
<path d="M368.695 92.5811L366.174 87.7731H353.518L350.997 92.5811H349.01L358.432 74.8674H361.31L370.732 92.5811H368.695ZM354.307 86.2801H365.384L359.833 75.7784L354.307 86.2801Z" fill="#ABABAB"/>
<path d="M390.653 74.8674H392.588V92.5811H390.653V84.3569H375.908V92.5811H373.973V74.8674H375.908V82.788H390.653V74.8674Z" fill="#ABABAB"/>
<path d="M415.522 92.5811L413.001 87.7731H400.345L397.824 92.5811H395.837L405.259 74.8674H408.137L417.559 92.5811H415.522ZM401.134 86.2801H412.211L406.66 75.7784L401.134 86.2801Z" fill="#ABABAB"/>
<path d="M423.83 74.8674H439.109V92.5811H437.174V76.4616H425.562C425.528 77.2545 425.477 78.368 425.409 79.8019C425.324 81.6239 425.256 82.9482 425.205 83.7749C425.155 84.6015 425.061 85.639 424.925 86.8874C424.79 88.1189 424.62 88.9962 424.416 89.5192C424.212 90.0422 423.932 90.6073 423.576 91.2146C423.236 91.822 422.803 92.2269 422.277 92.4293C421.768 92.6317 421.157 92.733 420.444 92.733C419.883 92.733 419.34 92.6992 418.814 92.6317V91.0628C419.289 91.1134 419.68 91.1387 419.985 91.1387C421.462 91.1387 422.396 90.2783 422.786 88.5576C423.194 86.8368 423.482 83.6568 423.652 79.0175C423.686 78.427 423.703 77.9715 423.703 77.651C423.72 77.3136 423.737 76.8834 423.754 76.3604C423.788 75.8205 423.813 75.3229 423.83 74.8674Z" fill="#ABABAB"/>
<path d="M460.344 74.8674H463.298V92.5811H461.388V76.1073L447.255 92.5811H444.276V74.8674H446.186V91.3412L460.344 74.8674Z" fill="#ABABAB"/>
<path d="M466.665 76.4616V74.8674H484.796V76.4616H476.698V92.5811H474.762V76.4616H466.665Z" fill="#ABABAB"/>
<path d="M504.212 74.8674H507.166V92.5811H505.256V76.1073L491.123 92.5811H488.143V74.8674H490.053V91.3412L504.212 74.8674Z" fill="#ABABAB"/>
<path d="M527.314 74.8674H529.249V92.5811H527.314V84.6859C524.818 85.2594 522.255 85.5462 519.623 85.5462C516.924 85.5462 514.912 85.116 513.588 84.2557C512.281 83.3784 511.627 82.0288 511.627 80.2068V74.8674H513.563V79.8778C513.563 81.3455 514.089 82.3999 515.141 83.041C516.194 83.6652 517.875 83.9773 520.183 83.9773C522.713 83.9773 525.09 83.6736 527.314 83.0663V74.8674Z" fill="#ABABAB"/>
<path d="M534.423 92.5811V74.8674H550.263V76.411H536.359V82.8386H547.436V84.3063H536.359V91.0375H550.772V92.5811H534.423Z" fill="#ABABAB"/>
<path d="M570.36 86.7103L572.193 86.8368C571.888 88.6419 570.92 90.1012 569.29 91.2146C567.661 92.3281 565.462 92.8848 562.695 92.8848C559.317 92.8848 556.702 92.0328 554.852 90.3289C553.001 88.6251 552.076 86.4235 552.076 83.7243C552.076 81.025 552.984 78.8234 554.801 77.1196C556.617 75.4157 559.172 74.5637 562.466 74.5637C565.046 74.5637 567.194 75.0783 568.908 76.1073C570.64 77.1364 571.676 78.5282 572.015 80.2827L570.182 80.4346C569.91 79.1355 569.053 78.098 567.61 77.322C566.184 76.5291 564.469 76.1326 562.466 76.1326C559.817 76.1326 557.746 76.8496 556.252 78.2836C554.758 79.7176 554.011 81.5311 554.011 83.7243C554.011 85.9174 554.767 87.7309 556.278 89.1649C557.806 90.5989 559.945 91.3159 562.695 91.3159C564.851 91.3159 566.6 90.8857 567.941 90.0253C569.299 89.148 570.105 88.043 570.36 86.7103Z" fill="#ABABAB"/>
<path d="M595.08 92.5811H592.457L583.137 84.3569H577.789V92.5811H575.854V74.8674H577.789V82.8639H583.137L591.973 74.8674H594.392L584.716 83.4712L595.08 92.5811Z" fill="#ABABAB"/>
<path d="M614.503 74.8674H617.457V92.5811H615.547V76.1073L601.414 92.5811H598.434V74.8674H600.344V91.3412L614.503 74.8674Z" fill="#ABABAB"/>
<path d="M632.155 73.3491C629.15 73.3491 627.588 72.3284 627.469 70.2871H628.819C629.006 71.5861 630.118 72.2356 632.155 72.2356C634.209 72.2356 635.33 71.5861 635.516 70.2871H636.866C636.747 72.3284 635.177 73.3491 632.155 73.3491ZM638.7 74.8674H641.654V92.5811H639.744V76.1073L625.61 92.5811H622.631V74.8674H624.541V91.3412L638.7 74.8674Z" fill="#ABABAB"/>
<path d="M350.92 115.94V98.2262H352.855V114.346H367.447V98.2262H369.382V114.346H371.47V120.115H369.713V115.94H350.92Z" fill="#ABABAB"/>
<path d="M374.57 115.94V98.2262H390.409V99.7698H376.505V106.197H387.583V107.665H376.505V114.396H390.918V115.94H374.57Z" fill="#ABABAB"/>
<path d="M411.467 98.2262H413.403V115.94H411.467V107.716H396.723V115.94H394.788V98.2262H396.723V106.147H411.467V98.2262Z" fill="#ABABAB"/>
<path d="M416.754 99.8204V98.2262H434.885V99.8204H426.787V115.94H424.852V99.8204H416.754Z" fill="#ABABAB"/>
<path d="M449.59 98.2262C451.492 98.2262 452.994 98.6901 454.097 99.618C455.201 100.529 455.753 101.828 455.753 103.515C455.753 105.219 455.201 106.518 454.097 107.412C453.011 108.306 451.509 108.753 449.59 108.753H440.168V115.94H438.233V98.2262H449.59ZM449.463 107.235C450.804 107.235 451.865 106.914 452.646 106.273C453.427 105.632 453.817 104.713 453.817 103.515C453.817 102.317 453.427 101.406 452.646 100.782C451.865 100.141 450.804 99.8204 449.463 99.8204H440.168V107.235H449.463Z" fill="#ABABAB"/>
<path d="M362.278 121.585C364.179 121.585 365.681 122.049 366.785 122.977C367.888 123.888 368.44 125.187 368.44 126.874C368.44 128.578 367.888 129.877 366.785 130.771C365.698 131.665 364.196 132.112 362.278 132.112H352.855V139.299H350.92V121.585H362.278ZM362.15 130.594C363.491 130.594 364.552 130.273 365.333 129.632C366.114 128.991 366.505 128.072 366.505 126.874C366.505 125.676 366.114 124.765 365.333 124.141C364.552 123.5 363.491 123.179 362.15 123.179H352.855V130.594H362.15Z" fill="#ABABAB"/>
<path d="M387.222 139.299L384.701 134.491H372.044L369.523 139.299H367.537L376.959 121.585H379.837L389.259 139.299H387.222ZM372.834 132.998H383.911L378.36 122.496L372.834 132.998Z" fill="#ABABAB"/>
<path d="M402.262 130.239C404.367 130.391 405.971 130.855 407.075 131.631C408.178 132.39 408.73 133.428 408.73 134.744C408.73 136.313 407.958 137.519 406.413 138.362C404.868 139.189 402.686 139.602 399.868 139.602C394.096 139.602 390.989 137.789 390.548 134.162L392.331 134.086C392.5 135.385 393.222 136.38 394.495 137.072C395.785 137.747 397.576 138.084 399.868 138.084C402.024 138.084 403.714 137.789 404.936 137.198C406.175 136.591 406.795 135.705 406.795 134.541C406.795 133.411 406.201 132.542 405.012 131.935C403.841 131.328 402.16 131.024 399.97 131.024H396.354V129.556H400.174C402.075 129.556 403.552 129.261 404.605 128.67C405.657 128.08 406.184 127.262 406.184 126.216C406.184 125.119 405.623 124.276 404.503 123.685C403.382 123.095 401.872 122.8 399.97 122.8C398.018 122.8 396.38 123.112 395.055 123.736C393.748 124.343 393.01 125.271 392.84 126.519L391.032 126.418C391.253 124.714 392.178 123.432 393.808 122.572C395.437 121.711 397.492 121.281 399.97 121.281C402.466 121.281 404.444 121.686 405.904 122.496C407.381 123.289 408.119 124.419 408.119 125.887C408.119 127.118 407.618 128.114 406.617 128.873C405.632 129.615 404.18 130.071 402.262 130.239Z" fill="#ABABAB"/>
<path d="M425.935 130.214C427.531 130.366 428.77 130.813 429.653 131.555C430.536 132.298 430.977 133.318 430.977 134.617C430.977 136.102 430.391 137.257 429.22 138.084C428.065 138.894 426.453 139.299 424.381 139.299H412.693V121.585H424.407C426.173 121.585 427.599 121.998 428.685 122.825C429.789 123.652 430.34 124.748 430.34 126.115C430.34 127.245 429.933 128.164 429.118 128.873C428.303 129.581 427.242 130.029 425.935 130.214ZM414.628 123.103V129.556H424.305C425.459 129.556 426.427 129.269 427.208 128.696C428.006 128.105 428.405 127.312 428.405 126.317C428.405 125.305 428.014 124.52 427.234 123.964C426.453 123.39 425.476 123.103 424.305 123.103H414.628ZM424.178 137.78C425.689 137.78 426.877 137.502 427.743 136.945C428.609 136.389 429.042 135.528 429.042 134.364C429.042 132.154 427.505 131.049 424.432 131.049H414.628V137.78H424.178Z" fill="#ABABAB"/>
<path d="M451.019 121.585H453.973V139.299H452.063V122.825L437.929 139.299H434.95V121.585H436.86V138.059L451.019 121.585Z" fill="#ABABAB"/>
<path d="M457.339 123.179V121.585H475.47V123.179H467.372V139.299H465.437V123.179H457.339Z" fill="#ABABAB"/>
<path d="M494.886 121.585H497.84V139.299H495.93V122.825L481.797 139.299H478.818V121.585H480.728V138.059L494.886 121.585Z" fill="#ABABAB"/>
<path d="M503.015 139.299V121.585H518.854V123.129H504.95V129.556H516.027V131.024H504.95V137.755H519.363V139.299H503.015Z" fill="#ABABAB"/>
<rect x="326.8" y="74.7407" width="1.95886" height="68.1298" fill="#ABABAB"/>
</svg>
